<?xml version="1.0" standalone="no"?><!DOCTYPE svg PUBLIC "-//W3C//DTD SVG 1.1//EN" "http://www.w3.org/Graphics/SVG/1.1/DTD/svg11.dtd"><svg t="1514206433419" class="icon" style="" viewBox="0 0 1024 1024" version="1.1" xmlns="http://www.w3.org/2000/svg" p-id="6452" xmlns:xlink="http://www.w3.org/1999/xlink" width="200" height="200"><defs><style type="text/css"></style></defs><path d="M628.571429 442.857143q0-61.714286-30.571429-96.571429T513.714286 311.428571q-36 0-70.857143 17.428572T380 377.142857t-45.428571 78.285714T317.142857 558.285714q0 64 30.571429 98.857143t86 34.857143q54.857143 0 100.571428-38t70-94.857143T628.571429 442.857143z m322.285714 69.142857q0 63.428571-21.142857 112.571429t-56.285715 77.142857-75.142857 42.571428-82.857143 15.714286q-3.428571 0-8.857142 0.285714t-9.428572 0.285715q-54.285714 0-81.142857-30.285715-16-18.857143-18.857143-47.428571-29.714286 37.714286-75.142857 62.857143T422.857143 770.857143q-92 0-142.571429-54.571429T229.714286 562.285714q0-89.714286 37.714285-165.714285t102.285715-120.285715T510.285714 232q49.714286 0 88.571429 20.285714t60.571428 56.857143l1.142858-10.857143 6.285714-32q0.571429-3.428571 3.142857-6.857143t5.428571-3.428571h67.428572q2.857143 0 7.428571 6.285714 2.857143 2.857143 1.714286 9.142857l-68.571429 350.857143q-2.857143 13.714286-2.857142 27.428572 0 22.285714 7.142857 29.714285t25.428571 7.428572q16-0.571429 32.571429-3.142857t41.714285-13.714286 44-28.571429 32.571429-51.142857 13.714286-78.285714q0-166.857143-99.428572-266.285714T512 146.285714q-74.285714 0-142 29.142857t-116.571429 78-78 116.571429T146.285714 512t29.142857 142 78 116.571429 116.571429 78 142 29.142857q130.285714 0 231.428571-82.285715 6.285714-5.142857 13.714286-4.571428t12 6.857143l23.428572 28q4.571429 6.857143 4 13.714285-1.142857 7.428571-6.857143 12.571429-58.285714 47.428571-130 73.142857T512 950.857143q-89.142857 0-170.285714-34.857143t-140-93.714286-93.714286-140-34.857143-170.285714 34.857143-170.285714 93.714286-140 140-93.714286 170.285714-34.857143q196.571429 0 317.714286 121.142857t121.142857 317.714286z" fill="#304156" p-id="6453"></path></svg>