<?xml version="1.0" standalone="no"?><!DOCTYPE svg PUBLIC "-//W3C//DTD SVG 1.1//EN" "http://www.w3.org/Graphics/SVG/1.1/DTD/svg11.dtd"><svg t="1514206480071" class="icon" style="" viewBox="0 0 1026 1024" version="1.1" xmlns="http://www.w3.org/2000/svg" p-id="7908" xmlns:xlink="http://www.w3.org/1999/xlink" width="200.390625" height="200"><defs><style type="text/css"></style></defs><path d="M356.352 251.264l315.072 0L671.424 172.48 356.352 172.48 356.352 251.264 356.352 251.264 356.352 251.264zM828.992 251.264l78.976 0c21.376 0 39.168 18.304 39.168 41.664l0 608.896c0 23.232-17.92 41.664-39.552 41.664L120.256 943.488c-21.696 0-39.616-18.368-39.616-41.664L80.64 292.928c0-23.36 17.792-41.664 39.744-41.664l80.192 0L200.576 172.48 120.384 172.48c-65.856 0-118.528 54.08-118.528 120.448l0 608.896c0 66.368 52.736 120.384 118.4 120.384l787.264 0c65.6 0 118.336-54.144 118.336-120.384L1025.856 292.928c0-66.368-52.48-120.448-117.952-120.448l-78.976 0L828.928 251.264 828.992 251.264zM238.272 129.344c0-21.632 17.472-39.168 39.36-39.168 21.76 0 39.36 17.472 39.36 39.168l0 165.312c0 21.632-17.408 39.168-39.36 39.168-21.696 0-39.36-17.536-39.36-39.168L238.272 129.344 238.272 129.344zM710.848 129.28c0-21.568 17.408-39.104 39.36-39.104 21.696 0 39.36 17.472 39.36 39.104l0 165.248c0 21.632-17.472 39.168-39.36 39.168-21.76 0-39.36-17.472-39.36-39.168L710.848 129.28 710.848 129.28zM238.272 494.72c0-21.76 17.664-39.36 39.616-39.36l472.064 0c21.888 0 39.68 17.472 39.68 39.36 0 21.76-17.728 39.36-39.68 39.36L277.888 534.08C256 534.144 238.272 516.672 238.272 494.72L238.272 494.72zM238.272 697.6c0-21.696 17.664-39.36 39.616-39.36l472.064 0c21.888 0 39.68 17.472 39.68 39.36 0 21.76-17.728 39.424-39.68 39.424L277.888 737.024C256 737.024 238.272 719.552 238.272 697.6L238.272 697.6z" p-id="7909" fill="#304156"></path></svg>