<?xml version="1.0" standalone="no"?><!DOCTYPE svg PUBLIC "-//W3C//DTD SVG 1.1//EN" "http://www.w3.org/Graphics/SVG/1.1/DTD/svg11.dtd"><svg t="1514205281396" class="icon" style="" viewBox="0 0 1024 1024" version="1.1" xmlns="http://www.w3.org/2000/svg" p-id="4340" xmlns:xlink="http://www.w3.org/1999/xlink" width="200" height="200"><defs><style type="text/css"></style></defs><path d="M958.72 649.85c-38.784-57.619-91.136-100.866-151.936-125.786 26.88-19.382 49.408-45.357 65.792-75.683 18.944-35.072 28.928-75.023 28.928-115.633 0-126.841-95.36-229.948-212.48-229.948-16.64 0-30.208 13.976-30.208 31.117s13.568 31.117 30.208 31.117c83.84 0 152.064 75.287 152.064 167.715 0 92.559-68.224 167.846-152.064 167.846-16.64 0-30.208 13.976-30.208 31.117l0 0.132c0 17.141 13.568 31.117 30.208 31.117 150.784 0 273.536 134.752 273.536 300.357 0 17.141 13.568 31.117 30.208 31.117s30.208-13.976 30.208-31.117C1022.848 785.921 1000.704 712.216 958.72 649.85L958.72 649.85zM646.784 596.978c-31.616-23.074-66.176-41.401-102.528-54.323 76.928-48.126 124.16-133.961 124.16-227.179 0-146.487-115.712-265.68-257.92-265.68-142.336 0-258.048 119.193-258.048 265.812 0 49.84 13.568 98.493 39.168 140.685 21.76 35.732 51.2 65.53 86.016 87.022-37.12 13.053-72.064 31.512-104.192 54.982-35.072 25.579-65.792 56.432-91.648 91.768C28.288 763.638 0 851.055 0 943.087c0 17.141 13.568 31.117 30.208 31.117s30.208-13.976 30.208-31.117c0-95.856 36.352-186.306 102.272-254.473 65.792-68.035 152.832-105.481 245.12-105.613 3.072 0.264 6.144 0 9.216-0.659l2.432-0.527c89.856 1.846 174.208 39.16 238.464 105.613 65.92 68.167 102.144 158.485 102.144 254.473 0 17.141 13.568 31.117 30.208 31.117s30.208-13.976 30.208-31.117c0-92.032-28.288-179.449-81.92-253.022C712.704 653.41 681.856 622.557 646.784 596.978L646.784 596.978zM410.496 112.03c108.928 0 197.632 91.373 197.632 203.578s-88.704 203.578-197.632 203.578-197.632-91.373-197.632-203.578C212.864 203.271 301.568 112.03 410.496 112.03L410.496 112.03z" p-id="4341" fill="#304156"></path></svg>