<?xml version="1.0" standalone="no"?><!DOCTYPE svg PUBLIC "-//W3C//DTD SVG 1.1//EN" "http://www.w3.org/Graphics/SVG/1.1/DTD/svg11.dtd"><svg t="1514206409586" class="icon" style="" viewBox="0 0 1024 1024" version="1.1" xmlns="http://www.w3.org/2000/svg" p-id="5625" xmlns:xlink="http://www.w3.org/1999/xlink" width="200" height="200"><defs><style type="text/css"></style></defs><path d="M511.999488 954.068278c-10.576893 0-20.49887-5.108345-26.622334-13.72049l-66.408479-92.965322C206.382952 809.954019 53.558311 650.122801 53.558311 462.881302c0-216.678948 205.643614-392.94958 458.441177-392.94958s458.441177 176.270633 458.441177 392.94958c0 187.273221-152.824641 347.072717-365.377618 384.467395l-66.408479 92.999091C532.498358 948.959933 522.576381 954.068278 511.999488 954.068278L511.999488 954.068278zM511.999488 135.423319c-216.678948 0-392.94958 146.897651-392.94958 327.457983 0 158.588925 136.026046 294.025547 323.43025 321.990458 8.774851 1.308809 16.666588 6.15621 21.808702 13.359262l47.710628 66.73696 47.710628-66.768683c5.14109-7.236821 13.000082-12.04943 21.808702-13.361309 187.405227-27.931143 323.43025-163.335019 323.43025-321.956689C904.949069 282.32097 728.678436 135.423319 511.999488 135.423319L511.999488 135.423319zM282.811646 528.372899c-36.118616 0-65.491597-29.374004-65.491597-65.491597s29.372981-65.491597 65.491597-65.491597c36.118616 0 65.491597 29.372981 65.491597 65.491597S318.930261 528.372899 282.811646 528.372899L282.811646 528.372899zM282.844392 462.881302l-0.065492 0 0.032746 32.745798L282.844392 462.881302 282.844392 462.881302zM741.252823 528.372899c-36.118616 0-65.491597-29.374004-65.491597-65.491597s29.372981-65.491597 65.491597-65.491597 65.491597 29.372981 65.491597 65.491597S777.371438 528.372899 741.252823 528.372899L741.252823 528.372899zM741.285568 462.881302l-0.065492 0 0.032746 32.745798L741.285568 462.881302 741.285568 462.881302zM512.032234 528.372899c-36.118616 0-65.491597-29.374004-65.491597-65.491597s29.372981-65.491597 65.491597-65.491597 65.491597 29.372981 65.491597 65.491597S548.15085 528.372899 512.032234 528.372899L512.032234 528.372899zM512.06498 462.881302l-0.065492 0 0.032746 32.745798L512.06498 462.881302 512.06498 462.881302z" p-id="5626" fill="#304156"></path></svg>