<?xml version="1.0" standalone="no"?><!DOCTYPE svg PUBLIC "-//W3C//DTD SVG 1.1//EN" "http://www.w3.org/Graphics/SVG/1.1/DTD/svg11.dtd"><svg t="1514256228244" class="icon" style="" viewBox="0 0 1024 1024" version="1.1" xmlns="http://www.w3.org/2000/svg" p-id="3430" xmlns:xlink="http://www.w3.org/1999/xlink" width="200" height="200"><defs><style type="text/css"></style></defs><path d="M1024 512c0 281.6-230.4 512-512 512S0 793.6 0 512 230.4 0 512 0 1024 230.4 1024 512zM526.628571 760.685714l223.085714-204.8c32.914286-29.257143 51.2-69.485714 51.2-113.371429 0-43.885714-18.285714-84.114286-51.2-113.371429-29.257143-25.6-69.485714-40.228571-109.714286-40.228571-40.228571 0-80.457143 14.628571-109.714286 40.228571L512 351.085714l-18.285714-18.285714c-29.257143-25.6-69.485714-40.228571-109.714286-40.228571s-80.457143 14.628571-109.714286 40.228571C241.371429 362.057143 223.085714 402.285714 223.085714 446.171429c0 43.885714 18.285714 84.114286 51.2 113.371429l223.085714 204.8c3.657143 3.657143 10.971429 7.314286 14.628571 7.314286C515.657143 768 522.971429 764.342857 526.628571 760.685714z" p-id="3431" fill="#304156"></path></svg>