<?xml version="1.0" standalone="no"?><!DOCTYPE svg PUBLIC "-//W3C//DTD SVG 1.1//EN" "http://www.w3.org/Graphics/SVG/1.1/DTD/svg11.dtd"><svg t="1514257577937" class="icon" style="" viewBox="0 0 1024 1024" version="1.1" xmlns="http://www.w3.org/2000/svg" p-id="7910" xmlns:xlink="http://www.w3.org/1999/xlink" width="200" height="200"><defs><style type="text/css"></style></defs><path d="M902 128H760v132c0 19.9-16.1 36-36 36s-36-16.1-36-36V128H336v132c0 19.9-16.1 36-36 36s-36-16.1-36-36V128H122c-39.7 0-72 32.3-72 72v624c0 39.7 32.3 72 72 72h780c39.7 0 72-32.3 72-72V200c0-39.7-32.3-72-72-72zM688 743H336c-19.9 0-36-16.1-36-36s16.1-36 36-36h352c19.9 0 36 16.1 36 36s-16.1 36-36 36z m0-190H336c-19.9 0-36-16.1-36-36s16.1-36 36-36h352c19.9 0 36 16.1 36 36s-16.1 36-36 36z m208-159H128v-72h768v72zM300 64c-19.9 0-36 16.1-36 36v28h72v-28c0-19.9-16.1-36-36-36zM724 64c-19.9 0-36 16.1-36 36v28h72v-28c0-19.9-16.1-36-36-36z" p-id="7911" fill="#304156"></path></svg>