<?xml version="1.0" standalone="no"?><!DOCTYPE svg PUBLIC "-//W3C//DTD SVG 1.1//EN" "http://www.w3.org/Graphics/SVG/1.1/DTD/svg11.dtd"><svg t="1514256572242" class="icon" style="" viewBox="0 0 1024 1024" version="1.1" xmlns="http://www.w3.org/2000/svg" p-id="5304" xmlns:xlink="http://www.w3.org/1999/xlink" width="200" height="200"><defs><style type="text/css"></style></defs><path d="M520.714 523.106c61.473-36.811 102.418-101.551 102.418-175.486 0-114.713-98.275-207.707-219.507-207.707-121.235 0-219.509 92.993-219.509 207.707 0 73.936 40.944 138.678 102.418 175.486-152.394 46.556-265.373 180.858-269.237 339.065-0.332 13.761 11.182 25.187 25.725 25.497l720.586 0.015c0.208 0 0.409 0 0.615 0 14.544 0 26.058-11.741 25.725-25.501-3.86-158.205-116.839-292.517-269.233-339.073zM789.176 586.378c50.303-30.121 83.802-83.085 83.802-143.58 0-93.856-80.409-169.949-179.599-169.949-9.793 0-19.334 0.945-28.704 2.373 7.137 22.996 11.135 47.245 11.135 72.397 0 59.525-21.382 115.749-59.475 160.679 134.638 70.859 222.654 204.294 226.281 352.736 0.194 8.073-1.372 15.989-3.85 23.63h149.139c0.171 0 0.336 0 0.506 0 11.898 0 21.324-9.605 21.047-20.863-3.162-129.441-95.602-239.335-220.284-277.423z" p-id="5305" fill="#304156"></path></svg>