<?xml version="1.0" standalone="no"?><!DOCTYPE svg PUBLIC "-//W3C//DTD SVG 1.1//EN" "http://www.w3.org/Graphics/SVG/1.1/DTD/svg11.dtd"><svg t="1514257316588" class="icon" style="" viewBox="0 0 1024 1024" version="1.1" xmlns="http://www.w3.org/2000/svg" p-id="6378" xmlns:xlink="http://www.w3.org/1999/xlink" width="200" height="200"><defs><style type="text/css"></style></defs><path d="M810.666667 234.666667a85.333333 85.333333 0 1 1 0-170.666667 85.333333 85.333333 0 0 1 0 170.666667z m-597.333334 0a85.333333 85.333333 0 1 1 0-170.666667 85.333333 85.333333 0 0 1 0 170.666667z" p-id="6379" fill="#304156"></path><path d="M896 512c0 220.501333-172.245333 398.72-384 398.72S128 732.501333 128 512a42.666667 42.666667 0 0 0-85.333333 0c0 267.008 209.792 484.053333 469.333333 484.053333S981.333333 779.008 981.333333 512a42.666667 42.666667 0 0 0-85.333333 0z" p-id="6380" fill="#304156"></path></svg>